<svg xmlns="http://www.w3.org/2000/svg" xmlns:xlink="http://www.w3.org/1999/xlink" viewBox="0 0 187 221.8">
  <defs>
    <style>
      .cls-1 {
        fill: url(#radial-gradient);
      }

      .cls-2 {
        isolation: isolate;
      }

      .cls-3 {
        fill: url(#radial-gradient-2);
      }

      .cls-11, .cls-18, .cls-4, .cls-8 {
        opacity: 0.5;
      }

      .cls-11, .cls-14, .cls-17, .cls-18, .cls-4, .cls-8 {
        mix-blend-mode: screen;
      }

      .cls-4 {
        fill: url(#linear-gradient);
      }

      .cls-5 {
        fill: #ffe33a;
      }

      .cls-6 {
        fill: #42210b;
      }

      .cls-7 {
        fill: #1a1a1a;
      }

      .cls-9 {
        fill: url(#linear-gradient-2);
      }

      .cls-10 {
        fill: url(#linear-gradient-3);
      }

      .cls-11 {
        fill: url(#linear-gradient-4);
      }

      .cls-12 {
        fill: url(#linear-gradient-5);
      }

      .cls-13 {
        fill: url(#radial-gradient-3);
      }

      .cls-14, .cls-17 {
        opacity: 0.8;
      }

      .cls-14 {
        fill: url(#linear-gradient-6);
      }

      .cls-15 {
        fill: url(#linear-gradient-7);
      }

      .cls-16 {
        fill: url(#radial-gradient-5);
      }

      .cls-17 {
        fill: url(#linear-gradient-8);
      }

      .cls-18 {
        fill: url(#linear-gradient-9);
      }

      .cls-19 {
        mask: url(#mask);
      }

      .cls-20 {
        opacity: 0.6;
        fill: url(#linear-gradient-10);
      }
    </style>
    <radialGradient id="radial-gradient" cx="694.38" cy="270.21" r="54.49" gradientTransform="matrix(-1.65, 0, 0.01, -0.21, 1238.41, 264.84)" gradientUnits="userSpaceOnUse">
      <stop offset="0" stop-color="#fff"/>
      <stop offset="0.12" stop-color="#d2d2d1"/>
      <stop offset="0.3" stop-color="#949492"/>
      <stop offset="0.48" stop-color="#60605e"/>
      <stop offset="0.64" stop-color="#383835"/>
      <stop offset="0.78" stop-color="#1c1c18"/>
      <stop offset="0.91" stop-color="#0a0a06"/>
      <stop offset="1" stop-color="#040400"/>
    </radialGradient>
    <radialGradient id="radial-gradient-2" cx="93.5" cy="93.5" r="93.5" gradientUnits="userSpaceOnUse">
      <stop offset="0.02" stop-color="#fcc200"/>
      <stop offset="0.54" stop-color="#fcc000"/>
      <stop offset="0.73" stop-color="#fdb900"/>
      <stop offset="0.86" stop-color="#fdae01"/>
      <stop offset="0.97" stop-color="#ff9d02"/>
      <stop offset="1" stop-color="#ff9702"/>
    </radialGradient>
    <linearGradient id="linear-gradient" x1="93.5" y1="-2.42" x2="93.5" y2="133.6" gradientUnits="userSpaceOnUse">
      <stop offset="0" stop-color="#fff"/>
      <stop offset="1" stop-color="#fff" stop-opacity="0"/>
    </linearGradient>
    <linearGradient id="linear-gradient-2" x1="113.64" y1="95.75" x2="175.99" y2="95.75" gradientUnits="userSpaceOnUse">
      <stop offset="0" stop-color="#fff"/>
      <stop offset="0.09" stop-color="#fff" stop-opacity="0.98"/>
      <stop offset="0.22" stop-color="#fff" stop-opacity="0.91"/>
      <stop offset="0.36" stop-color="#fff" stop-opacity="0.8"/>
      <stop offset="0.52" stop-color="#fff" stop-opacity="0.65"/>
      <stop offset="0.69" stop-color="#fff" stop-opacity="0.45"/>
      <stop offset="0.86" stop-color="#fff" stop-opacity="0.21"/>
      <stop offset="1" stop-color="#fff" stop-opacity="0"/>
    </linearGradient>
    <linearGradient id="linear-gradient-3" x1="73.81" y1="95.75" x2="11.45" y2="95.75" xlink:href="#linear-gradient-2"/>
    <linearGradient id="linear-gradient-4" x1="93.5" y1="18.93" x2="93.5" y2="63.68" xlink:href="#linear-gradient-2"/>
    <linearGradient id="linear-gradient-5" x1="137.89" y1="55.55" x2="137.89" y2="106.21" gradientUnits="userSpaceOnUse">
      <stop offset="0.1" stop-color="#2e3192"/>
      <stop offset="1" stop-color="#29abe2"/>
    </linearGradient>
    <radialGradient id="radial-gradient-3" cx="138.2" cy="100.87" r="21.36" gradientUnits="userSpaceOnUse">
      <stop offset="0" stop-color="#3ddeed"/>
      <stop offset="1" stop-color="#3ddeed" stop-opacity="0"/>
    </radialGradient>
    <linearGradient id="linear-gradient-6" x1="137.95" y1="40.03" x2="137.95" y2="66.11" xlink:href="#linear-gradient-2"/>
    <linearGradient id="linear-gradient-7" x1="-2568.67" y1="55.55" x2="-2568.67" y2="106.21" gradientTransform="matrix(-1, 0, 0, 1, -2519.56, 0)" xlink:href="#linear-gradient-5"/>
    <radialGradient id="radial-gradient-5" cx="-2568.36" cy="100.87" r="21.36" gradientTransform="matrix(-1, 0, 0, 1, -2519.56, 0)" xlink:href="#radial-gradient-3"/>
    <linearGradient id="linear-gradient-8" x1="-2568.61" y1="40.03" x2="-2568.61" y2="66.11" gradientTransform="matrix(-1, 0, 0, 1, -2519.56, 0)" xlink:href="#linear-gradient-2"/>
    <linearGradient id="linear-gradient-9" x1="93.48" y1="79.51" x2="93.48" y2="83.51" xlink:href="#linear-gradient-2"/>
    <mask id="mask" x="4.3" y="198.43" width="180.03" height="23.32" maskUnits="userSpaceOnUse">
      <path class="cls-1" d="M4.3,210.3c.4-6.4,41.1-11.8,90.8-11.9s89.6,5,89.2,11.4-40.9,11.8-90.7,11.9S3.8,216.8,4.3,210.3Z"/>
    </mask>
    <linearGradient id="linear-gradient-10" x1="4.3" y1="210.09" x2="184.33" y2="210.09" gradientUnits="userSpaceOnUse">
      <stop offset="0" stop-color="#42210b"/>
      <stop offset="0.49" stop-color="#40200b"/>
      <stop offset="0.66" stop-color="#391d0a"/>
      <stop offset="0.79" stop-color="#2e1708"/>
      <stop offset="0.89" stop-color="#1d0e05"/>
      <stop offset="0.98" stop-color="#070301"/>
      <stop offset="1"/>
    </linearGradient>
  </defs>
  <title>Asset 3</title>
  <g class="cls-2">
    <g id="Layer_2" data-name="Layer 2">
      <g id="OBJECTS">
        <g>
          <circle class="cls-3" cx="93.5" cy="93.5" r="93.5"/>
          <circle class="cls-4" cx="93.5" cy="71.1" r="71.1"/>
          <g>
            <path class="cls-5" d="M128.5,131.1a87.7,87.7,0,0,1-34.3,6.8,87.7,87.7,0,0,1-34.3-6.8s6.4,18.7,34.3,18.7S128.5,131.1,128.5,131.1Z"/>
            <path class="cls-6" d="M94.2,147.9c27.9,0,34.3-18.7,34.3-18.7A87.6,87.6,0,0,1,94.2,136a87.7,87.7,0,0,1-34.3-6.8s6.4,18.7,34.3,18.7"/>
          </g>
          <g>
            <path class="cls-7" d="M174.9,62.9c-6.2-16.8-23.4-19-37.8-19-4.1,0-8.2.2-12.1.3l-5.3.2H67.4L62,44.3c-4-.2-8.1-.3-12.1-.3-14.3,0-31.6,2.2-37.8,19-4.9,13.4-2.7,30.9,5.4,42.6,6.2,8.9,15.3,13.9,25.6,14.2l3.1.2a37.1,37.1,0,0,0,19.4-5.7c9.2-5.7,16-15.3,20.3-28.5v-.2a14.9,14.9,0,0,1,8.1-2.9,10.3,10.3,0,0,1,6.7,2.7l.2.6c4.3,13.1,11.1,22.6,20.2,28.4a37.2,37.2,0,0,0,19.4,5.7l3.1-.2c10.4-.2,19.5-5.2,25.6-14.2C177.6,93.9,179.8,76.3,174.9,62.9Z"/>
            <g class="cls-8">
              <path class="cls-9" d="M114.1,105.6l1.5,1.4,1.5,1.4,1.6,1.3,1.7,1.2,1.7,1.1,1.8,1,1.8.9,1.9.8,1.9.7,2,.6,2,.5,2,.4,4,.4h4.1l3.7-.3,3.7-.8,1.8-.6,1.7-.7a26.8,26.8,0,0,0,3.3-1.7,22.1,22.1,0,0,0,3.1-2.1l1.5-1.2,1.3-1.3,1.3-1.3,1.2-1.5,1.2-1.5,1-1.6,1-1.6.8-1.7.8-1.7c.3-.6.5-1.2.7-1.8A30.4,30.4,0,0,0,173,92a35.5,35.5,0,0,0,1-3.7c.2-1.2.6-2.5.7-3.7s.4-2.5.4-3.8.1-2.5.1-3.8l-.2-3.8.4,3.8c.1,1.3,0,2.6.1,3.8s-.2,2.6-.2,3.8a13.5,13.5,0,0,1-.2,1.9l-.3,1.9a36,36,0,0,1-.9,3.8,31.4,31.4,0,0,1-1.2,3.7c-.2.6-.4,1.2-.7,1.8l-.8,1.8-.9,1.8-1,1.6-1,1.7-1.2,1.5-1.2,1.5-1.4,1.4-1.4,1.4-1.5,1.2a23.5,23.5,0,0,1-3.2,2.2,23.8,23.8,0,0,1-3.5,1.8l-1.8.7-1.9.6c-1.2.4-2.5.5-3.8.8l-3.9.3h-4.2l-2.1-.2-2.1-.3-2-.4-2-.6-2-.7-1.9-.8-1.9-.9-1.8-1-1.8-1.1-1.7-1.2-1.6-1.3-1.5-1.4-1.5-1.5Z"/>
            </g>
            <g class="cls-8">
              <path class="cls-10" d="M73.3,105.6,72,107.1l-1.5,1.5L69,109.9l-1.6,1.3-1.7,1.2-1.8,1.1-1.8,1-1.9.9-1.9.8-2,.7-2,.6-2,.4-2.1.3-2.1.2H43.9l-3.9-.3c-1.3-.3-2.6-.4-3.8-.8l-1.9-.6-1.8-.7A23.8,23.8,0,0,1,29,114a23.3,23.3,0,0,1-3.2-2.2l-1.5-1.2-1.4-1.4-1.4-1.4-1.2-1.5-1.2-1.5-1-1.7-1-1.6-.9-1.8-.8-1.8c-.3-.6-.4-1.2-.7-1.8a31.5,31.5,0,0,1-1.2-3.7,36.2,36.2,0,0,1-.9-3.8l-.3-1.9a13.7,13.7,0,0,1-.2-1.9c-.1-1.3-.2-2.6-.2-3.8s0-2.6.1-3.8l.4-3.8L12.2,77c0,1.3.1,2.5.1,3.8s.3,2.5.4,3.8.5,2.5.7,3.7a35.5,35.5,0,0,0,1,3.7,30.5,30.5,0,0,0,1.3,3.6c.2.6.4,1.2.7,1.8l.8,1.7.8,1.7,1,1.6,1,1.6,1.2,1.5,1.2,1.5,1.3,1.3,1.3,1.3,1.5,1.2a22,22,0,0,0,3.1,2.1,26.7,26.7,0,0,0,3.3,1.7l1.7.7,1.8.6,3.7.8,3.7.3H48l4-.4,2-.4,2-.5,2-.6,1.9-.7,1.9-.8,1.8-.9,1.8-1,1.7-1.1,1.7-1.2,1.6-1.3,1.5-1.4Z"/>
            </g>
            <path class="cls-11" d="M174.9,70.5a39.7,39.7,0,0,0-1.8-6.9c-5.8-15.7-22.3-17.8-36-17.8-4,0-8.1.2-12,.3l-5.3.2H67.3l-5.3-.2c-3.9-.2-8-.3-12-.3-13.7,0-30.2,2-36,17.8a39.8,39.8,0,0,0-1.8,6.9Z"/>
            <path class="cls-7" d="M105.2,84s-10.5-34.5,10.7-35,47.6-4.6,54.8,15.1-2.2,50.9-27.1,51.1C143.7,115.3,116.8,119.6,105.2,84Z"/>
            <path class="cls-7" d="M81.8,84s10.5-34.5-10.7-35S23.4,44.5,16.2,64.1s2.2,50.9,27.1,51.1C43.3,115.3,70.2,119.6,81.8,84Z"/>
            <path class="cls-12" d="M107,83.9S97,51.2,117.1,50.8s45.1-4.3,51.9,14.3-2.1,48.2-25.7,48.4C143.4,113.5,117.9,117.6,107,83.9Z"/>
            <path class="cls-13" d="M166.3,96.9c-4.5,8.5-12.2,14.6-23,14.7,0,0-21.3,3.5-33.3-21.8,15.1,19.1,34.7,15.9,34.7,15.9A30.6,30.6,0,0,0,166.3,96.9Z"/>
            <path class="cls-13" d="M166.3,96.9c-4.5,8.5-12.2,14.6-23,14.7,0,0-21.3,3.5-33.3-21.8,15.1,19.1,34.7,15.9,34.7,15.9A30.6,30.6,0,0,0,166.3,96.9Z"/>
            <path class="cls-14" d="M143.2,74.8A108.6,108.6,0,0,0,171,73.3a36.7,36.7,0,0,0-1.9-8.3c-6.8-18.6-31.9-14.7-51.9-14.3-7.8.2-11.1,5.3-12.2,11.4C113.9,71.7,131.2,74,143.2,74.8Z"/>
            <path class="cls-15" d="M80,83.9S90,51.2,69.9,50.8,24.8,46.4,18,65.1s2.1,48.2,25.7,48.4C43.6,113.5,69.1,117.6,80,83.9Z"/>
            <path class="cls-16" d="M20.7,96.9c4.5,8.5,12.2,14.6,23,14.7,0,0,21.3,3.5,33.3-21.8C61.9,109,42.3,105.8,42.3,105.8A30.6,30.6,0,0,1,20.7,96.9Z"/>
            <path class="cls-16" d="M20.7,96.9c4.5,8.5,12.2,14.6,23,14.7,0,0,21.3,3.5,33.3-21.8C61.9,109,42.3,105.8,42.3,105.8A30.6,30.6,0,0,1,20.7,96.9Z"/>
            <path class="cls-17" d="M43.8,74.8A108.6,108.6,0,0,1,16,73.3,36.7,36.7,0,0,1,18,65.1c6.8-18.6,31.9-14.7,51.9-14.3C77.7,51,81,56,82.1,62.2,73.1,71.7,55.8,74,43.8,74.8Z"/>
            <path class="cls-18" d="M86.1,83a9.8,9.8,0,0,1,2-1.6l1.1-.6,1.3-.6a10.9,10.9,0,0,1,3-.7h2.4l.7.2.7.2.6.3.6.3.5.4.8.7.5.6.4.5-.6-.4-.7-.4-.9-.5-.5-.3-.6-.2L96.4,81H93.6l-1.4.2-1.4.3-1.3.4-1.1.4Z"/>
          </g>
          <g class="cls-19">
            <path class="cls-20" d="M4.3,210.3c.4-6.4,41.1-11.8,90.8-11.9s89.6,5,89.2,11.4-40.9,11.8-90.7,11.9S3.8,216.8,4.3,210.3Z"/>
          </g>
        </g>
      </g>
    </g>
  </g>
</svg>
